<?xml version="1.0" encoding="UTF-8" standalone="no"?>
<!-- Created with Inkscape (http://www.inkscape.org/) -->

<svg
   xmlns:dc="http://purl.org/dc/elements/1.1/"
   xmlns:cc="http://creativecommons.org/ns#"
   xmlns:rdf="http://www.w3.org/1999/02/22-rdf-syntax-ns#"
   xmlns:svg="http://www.w3.org/2000/svg"
   xmlns="http://www.w3.org/2000/svg"
   xmlns:xlink="http://www.w3.org/1999/xlink"
   xmlns:sodipodi="http://sodipodi.sourceforge.net/DTD/sodipodi-0.dtd"
   xmlns:inkscape="http://www.inkscape.org/namespaces/inkscape"
   width="64px"
   height="64px"
   id="svg3799"
   version="1.1"
   inkscape:version="0.92.3 (2405546, 2018-03-11)"
   sodipodi:docname="cycloidegearbox.svg">
  <defs
     id="defs3801">
    <inkscape:path-effect
       effect="spiro"
       id="path-effect9409"
       is_visible="true" />
    <inkscape:path-effect
       effect="spiro"
       id="path-effect9405"
       is_visible="true" />
    <inkscape:path-effect
       effect="spiro"
       id="path-effect9398"
       is_visible="true" />
    <inkscape:path-effect
       effect="spiro"
       id="path-effect9390"
       is_visible="true" />
    <inkscape:path-effect
       effect="spiro"
       id="path-effect9384"
       is_visible="true" />
    <linearGradient
       inkscape:collect="always"
       id="linearGradient9347">
      <stop
         style="stop-color:#0079ff;stop-opacity:1;"
         offset="0"
         id="stop9349" />
      <stop
         style="stop-color:#0079ff;stop-opacity:0"
         offset="1"
         id="stop9351" />
    </linearGradient>
    <marker
       inkscape:stockid="Arrow2Mstart"
       orient="auto"
       refY="0.0"
       refX="0.0"
       id="Arrow2Mstart"
       style="overflow:visible">
      <path
         id="path4317"
         style="fill-rule:evenodd;stroke-width:0.62500000;stroke-linejoin:round"
         d="M 8.7185878,4.0337352 L -2.2072895,0.016013256 L 8.7185884,-4.0017078 C 6.9730900,-1.6296469 6.9831476,1.6157441 8.7185878,4.0337352 z "
         transform="scale(0.6) translate(0,0)" />
    </marker>
    <marker
       inkscape:stockid="Arrow1Mend"
       orient="auto"
       refY="0.0"
       refX="0.0"
       id="Arrow1Mend"
       style="overflow:visible;">
      <path
         id="path4302"
         d="M 0.0,0.0 L 5.0,-5.0 L -12.5,0.0 L 5.0,5.0 L 0.0,0.0 z "
         style="fill-rule:evenodd;stroke:#000000;stroke-width:1.0pt;"
         transform="scale(0.4) rotate(180) translate(10,0)" />
    </marker>
    <marker
       inkscape:stockid="Arrow2Mend"
       orient="auto"
       refY="0.0"
       refX="0.0"
       id="Arrow2Mend"
       style="overflow:visible;">
      <path
         id="path4320"
         style="fill-rule:evenodd;stroke-width:0.62500000;stroke-linejoin:round;"
         d="M 8.7185878,4.0337352 L -2.2072895,0.016013256 L 8.7185884,-4.0017078 C 6.9730900,-1.6296469 6.9831476,1.6157441 8.7185878,4.0337352 z "
         transform="scale(0.6) rotate(180) translate(0,0)" />
    </marker>
    <marker
       inkscape:stockid="Arrow1Mstart"
       orient="auto"
       refY="0.0"
       refX="0.0"
       id="Arrow1Mstart"
       style="overflow:visible">
      <path
         id="path4299"
         d="M 0.0,0.0 L 5.0,-5.0 L -12.5,0.0 L 5.0,5.0 L 0.0,0.0 z "
         style="fill-rule:evenodd;stroke:#000000;stroke-width:1.0pt"
         transform="scale(0.4) translate(10,0)" />
    </marker>
    <marker
       inkscape:stockid="Arrow1Lend"
       orient="auto"
       refY="0.0"
       refX="0.0"
       id="Arrow1Lend"
       style="overflow:visible;">
      <path
         id="path4296"
         d="M 0.0,0.0 L 5.0,-5.0 L -12.5,0.0 L 5.0,5.0 L 0.0,0.0 z "
         style="fill-rule:evenodd;stroke:#000000;stroke-width:1.0pt;"
         transform="scale(0.8) rotate(180) translate(12.5,0)" />
    </marker>
    <marker
       inkscape:stockid="Arrow2Lend"
       orient="auto"
       refY="0.0"
       refX="0.0"
       id="Arrow2Lend"
       style="overflow:visible;">
      <path
         id="path4314"
         style="fill-rule:evenodd;stroke-width:0.62500000;stroke-linejoin:round;"
         d="M 8.7185878,4.0337352 L -2.2072895,0.016013256 L 8.7185884,-4.0017078 C 6.9730900,-1.6296469 6.9831476,1.6157441 8.7185878,4.0337352 z "
         transform="scale(1.1) rotate(180) translate(1,0)" />
    </marker>
    <marker
       inkscape:stockid="EmptyTriangleOutL"
       orient="auto"
       refY="0.0"
       refX="0.0"
       id="EmptyTriangleOutL"
       style="overflow:visible">
      <path
         id="path4487"
         d="M 5.77,0.0 L -2.88,5.0 L -2.88,-5.0 L 5.77,0.0 z "
         style="fill-rule:evenodd;fill:#FFFFFF;stroke:#000000;stroke-width:1.0pt"
         transform="scale(0.8) translate(-6,0)" />
    </marker>
    <marker
       inkscape:stockid="DotS"
       orient="auto"
       refY="0.0"
       refX="0.0"
       id="DotS"
       style="overflow:visible">
      <path
         id="path4394"
         d="M -2.5,-1.0 C -2.5,1.7600000 -4.7400000,4.0 -7.5,4.0 C -10.260000,4.0 -12.5,1.7600000 -12.5,-1.0 C -12.5,-3.7600000 -10.260000,-6.0 -7.5,-6.0 C -4.7400000,-6.0 -2.5,-3.7600000 -2.5,-1.0 z "
         style="fill-rule:evenodd;stroke:#000000;stroke-width:1.0pt"
         transform="scale(0.2) translate(7.4, 1)" />
    </marker>
    <marker
       inkscape:stockid="DotL"
       orient="auto"
       refY="0.0"
       refX="0.0"
       id="DotL"
       style="overflow:visible">
      <path
         id="path4388"
         d="M -2.5,-1.0 C -2.5,1.7600000 -4.7400000,4.0 -7.5,4.0 C -10.260000,4.0 -12.5,1.7600000 -12.5,-1.0 C -12.5,-3.7600000 -10.260000,-6.0 -7.5,-6.0 C -4.7400000,-6.0 -2.5,-3.7600000 -2.5,-1.0 z "
         style="fill-rule:evenodd;stroke:#000000;stroke-width:1.0pt"
         transform="scale(0.8) translate(7.4, 1)" />
    </marker>
    <marker
       inkscape:stockid="Tail"
       orient="auto"
       refY="0.0"
       refX="0.0"
       id="Tail"
       style="overflow:visible">
      <g
         id="g4363"
         transform="scale(-1.2)">
        <path
           id="path4365"
           d="M -3.8048674,-3.9585227 L 0.54352094,0"
           style="fill:none;fill-rule:evenodd;stroke:#000000;stroke-width:0.8;stroke-linecap:round" />
        <path
           id="path4367"
           d="M -1.2866832,-3.9585227 L 3.0617053,0"
           style="fill:none;fill-rule:evenodd;stroke:#000000;stroke-width:0.8;stroke-linecap:round" />
        <path
           id="path4369"
           d="M 1.3053582,-3.9585227 L 5.6537466,0"
           style="fill:none;fill-rule:evenodd;stroke:#000000;stroke-width:0.8;stroke-linecap:round" />
        <path
           id="path4371"
           d="M -3.8048674,4.1775838 L 0.54352094,0.21974226"
           style="fill:none;fill-rule:evenodd;stroke:#000000;stroke-width:0.8;stroke-linecap:round" />
        <path
           id="path4373"
           d="M -1.2866832,4.1775838 L 3.0617053,0.21974226"
           style="fill:none;fill-rule:evenodd;stroke:#000000;stroke-width:0.8;stroke-linecap:round" />
        <path
           id="path4375"
           d="M 1.3053582,4.1775838 L 5.6537466,0.21974226"
           style="fill:none;fill-rule:evenodd;stroke:#000000;stroke-width:0.8;stroke-linecap:round" />
      </g>
    </marker>
    <marker
       inkscape:stockid="Arrow1Sstart"
       orient="auto"
       refY="0.0"
       refX="0.0"
       id="Arrow1Sstart"
       style="overflow:visible">
      <path
         id="path4339"
         d="M 0.0,0.0 L 5.0,-5.0 L -12.5,0.0 L 5.0,5.0 L 0.0,0.0 z "
         style="fill-rule:evenodd;stroke:#000000;stroke-width:1.0pt"
         transform="scale(0.2) translate(6,0)" />
    </marker>
    <marker
       inkscape:stockid="Arrow1Lstart"
       orient="auto"
       refY="0.0"
       refX="0.0"
       id="Arrow1Lstart"
       style="overflow:visible">
      <path
         id="path4327"
         d="M 0.0,0.0 L 5.0,-5.0 L -12.5,0.0 L 5.0,5.0 L 0.0,0.0 z "
         style="fill-rule:evenodd;stroke:#000000;stroke-width:1.0pt"
         transform="scale(0.8) translate(12.5,0)" />
    </marker>
    <marker
       inkscape:stockid="Arrow1Mstart"
       orient="auto"
       refY="0"
       refX="0"
       id="Arrow1Mstart-9"
       style="overflow:visible">
      <path
         inkscape:connector-curvature="0"
         id="path4299-1"
         d="M 0,0 5,-5 -12.5,0 5,5 0,0 z"
         style="fill-rule:evenodd;stroke:#000000;stroke-width:1pt"
         transform="matrix(0.4,0,0,0.4,4,0)" />
    </marker>
    <marker
       inkscape:stockid="Arrow2Mend"
       orient="auto"
       refY="0"
       refX="0"
       id="Arrow2Mend-7"
       style="overflow:visible">
      <path
         inkscape:connector-curvature="0"
         id="path4320-8"
         style="fill-rule:evenodd;stroke-width:0.625;stroke-linejoin:round"
         d="M 8.7185878,4.0337352 -2.2072895,0.01601326 8.7185884,-4.0017078 c -1.7454984,2.3720609 -1.7354408,5.6174519 -6e-7,8.035443 z"
         transform="scale(-0.6,-0.6)" />
    </marker>
    <linearGradient
       inkscape:collect="always"
       xlink:href="#linearGradient9347"
       id="linearGradient9353"
       x1="-21.345743"
       y1="40.800289"
       x2="1.8271284"
       y2="47.081963"
       gradientUnits="userSpaceOnUse" />
  </defs>
  <sodipodi:namedview
     id="base"
     pagecolor="#ffffff"
     bordercolor="#666666"
     borderopacity="1.0"
     inkscape:pageopacity="0.0"
     inkscape:pageshadow="2"
     inkscape:zoom="16.99744"
     inkscape:cx="51.418417"
     inkscape:cy="22.461024"
     inkscape:current-layer="layer1"
     showgrid="true"
     inkscape:document-units="px"
     inkscape:grid-bbox="true"
     inkscape:snap-center="false"
     showguides="true"
     inkscape:guide-bbox="true"
     inkscape:window-width="3840"
     inkscape:window-height="2060"
     inkscape:window-x="0"
     inkscape:window-y="0"
     inkscape:window-maximized="1">
    <sodipodi:guide
       orientation="1,0"
       position="32,32"
       id="guide3783"
       inkscape:locked="false" />
    <sodipodi:guide
       orientation="0,1"
       position="32,32"
       id="guide3785"
       inkscape:locked="false" />
    <sodipodi:guide
       orientation="1,0"
       position="0,0"
       id="guide9301"
       inkscape:locked="false" />
    <sodipodi:guide
       orientation="0,1"
       position="0,0"
       id="guide9303"
       inkscape:locked="false" />
    <sodipodi:guide
       orientation="0,1"
       position="0,64"
       id="guide9305"
       inkscape:locked="false" />
    <sodipodi:guide
       orientation="1,0"
       position="64,64"
       id="guide9307"
       inkscape:locked="false" />
  </sodipodi:namedview>
  <metadata
     id="metadata3804">
    <rdf:RDF>
      <cc:Work
         rdf:about="">
        <dc:format>image/svg+xml</dc:format>
        <dc:type
           rdf:resource="http://purl.org/dc/dcmitype/StillImage" />
        <dc:title></dc:title>
      </cc:Work>
    </rdf:RDF>
  </metadata>
  <g
     id="layer1"
     inkscape:label="Layer 1"
     inkscape:groupmode="layer">
    <rect
       style="fill:#ffbf00;stroke:none;fill-opacity:1"
       id="rect3156"
       width="63.804237"
       height="63.986015"
       x="0.18181612"
       y="1.4630233e-07"
       ry="15.401461" />
    <path
       style="fill:#000000;stroke-width:0.82492661;fill-opacity:1"
       d="m 32,58.790321 c -0.02991,-0.08157 -0.345831,-2.150473 -0.702114,-4.597562 -0.356293,-2.44709 -0.680099,-4.618299 -0.719565,-4.824908 -0.0628,-0.328744 -0.15391,-0.400591 -0.729558,-0.575356 -0.361782,-0.109837 -0.985307,-0.350617 -1.385609,-0.535066 l -0.727823,-0.335364 -0.612139,0.429745 c -0.336675,0.23636 -2.232897,1.593875 -4.213826,3.016699 -1.980929,1.422825 -3.675675,2.586955 -3.766102,2.586955 -0.231385,0 -4.309313,-3.820125 -4.307623,-4.035299 7.67e-4,-0.09717 1.436437,-1.936267 3.190384,-4.086898 1.753946,-2.15063 3.188995,-3.927657 3.188995,-3.948948 0,-0.0213 -0.134082,-0.290546 -0.297957,-0.59834 -0.163874,-0.307796 -0.429297,-0.893323 -0.589828,-1.301171 -0.16053,-0.407848 -0.367036,-0.741543 -0.458904,-0.741543 -0.289635,0 -10.1947078,-1.190393 -10.3620175,-1.245308 -0.2035219,-0.0668 -0.2333883,-5.698403 -0.030837,-5.814788 0.070773,-0.04067 2.4109225,-0.364242 5.2003245,-0.719053 2.789402,-0.354812 5.148202,-0.658383 5.241777,-0.674602 0.09358,-0.01623 0.300475,-0.376608 0.459777,-0.800861 0.159303,-0.424251 0.415119,-1.000036 0.568479,-1.279522 0.153361,-0.279484 0.236072,-0.573061 0.183803,-0.652393 -0.05226,-0.07933 -1.468037,-1.796619 -3.146153,-3.816197 -1.678114,-2.019576 -3.115685,-3.768081 -3.194601,-3.885566 -0.12459,-0.185479 0.141853,-0.47924 2.023282,-2.23072 1.191724,-1.10941 2.210154,-2.017111 2.263178,-2.017111 0.08614,0 1.833366,1.214159 7.032337,4.886816 l 1.63847,1.15745 0.594798,-0.278039 c 0.327138,-0.152922 0.947056,-0.396565 1.377594,-0.541432 0.700814,-0.235806 0.789417,-0.302635 0.845992,-0.638113 0.03473,-0.206096 0.338429,-2.40358 0.674805,-4.883298 0.336389,-2.479717 0.6662,-4.575315 0.732928,-4.656885 0.143998,-0.176056 5.779881,-0.213366 6.073984,-0.04021 0.125366,0.07381 0.378652,1.47475 0.863072,4.773714 0.377104,2.568089 0.712874,4.782618 0.746152,4.921176 0.04389,0.182513 0.280718,0.326846 0.859735,0.523849 0.439569,0.149561 1.061238,0.392416 1.381492,0.539682 l 0.582271,0.267755 0.432648,-0.317019 c 3.264042,-2.391745 8.014141,-5.715445 8.168269,-5.715445 0.22246,0 4.336028,3.797954 4.336028,4.003347 0,0.07209 -1.444965,1.905179 -3.211043,4.073533 -3.018651,3.706244 -3.202723,3.960938 -3.072132,4.250735 0.07643,0.169545 0.341695,0.762091 0.589537,1.316764 l 0.450627,1.008498 5.205722,0.622089 c 2.863138,0.342149 5.277493,0.647472 5.365237,0.678494 0.121492,0.04296 0.159514,0.734437 0.159514,2.900651 0,1.564334 -0.04607,2.870723 -0.102447,2.903084 -0.05627,0.03237 -2.45389,0.359898 -5.327936,0.727856 -2.874047,0.367958 -5.256465,0.705019 -5.294269,0.749027 -0.03782,0.04401 -0.313905,0.647335 -0.613578,1.340731 l -0.544846,1.260718 3.055093,3.675558 c 1.680293,2.021556 3.14656,3.805359 3.258369,3.964003 0.202062,0.28672 0.190053,0.300729 -2.007686,2.34152 L 51.115104,53.976828 48.448013,52.1021 c -1.466897,-1.0311 -3.40365,-2.396219 -4.303895,-3.033597 l -1.636805,-1.158868 -0.59647,0.278823 c -0.328046,0.153352 -0.956293,0.399919 -1.396102,0.547927 -0.581813,0.195795 -0.815205,0.337305 -0.856757,0.519465 -0.0314,0.1377 -0.320197,2.199137 -0.641757,4.580972 -0.321549,2.381833 -0.617177,4.504128 -0.656929,4.716208 l -0.07231,0.385602 H 35.17061 c -2.37906,0 -3.129222,-0.03509 -3.170693,-0.148308 z m 5.137735,-16.750348 c 1.275045,-0.315265 2.330563,-0.903057 3.424208,-1.906856 1.584149,-1.454013 2.349713,-3.117459 2.345794,-5.097078 -0.0057,-2.811828 -1.663929,-5.275104 -4.400842,-6.536829 -2.971084,-1.369682 -6.553718,-0.800738 -8.926956,1.417653 -1.505974,1.407715 -2.239384,3.08272 -2.239384,5.114442 0,1.732009 0.472674,3.050096 1.582834,4.413852 1.857853,2.282244 5.203807,3.339189 8.214346,2.594816 z"
       id="path3154"
       inkscape:connector-curvature="0" />
    <path
       style="opacity:1;fill:#000000;fill-opacity:1;fill-rule:evenodd;stroke:#110000;stroke-width:4.00416327;stroke-linejoin:round;stroke-miterlimit:4;stroke-dasharray:none;stroke-dashoffset:0;stroke-opacity:1"
       id="path3768"
       sodipodi:type="arc"
       sodipodi:cx="31.237589"
       sodipodi:cy="32.201096"
       sodipodi:rx="0.76320505"
       sodipodi:ry="2.0318301"
       sodipodi:start="0"
       sodipodi:end="0.045616973"
       d="M 32.000794,32.201096 A 0.76320505,2.0318301 0 0 1 32,32.293749 l -0.762411,-0.09265 z" />
    <path
       style="opacity:1;fill:#000000;fill-opacity:1;fill-rule:evenodd;stroke:#110000;stroke-width:4;stroke-linejoin:round;stroke-miterlimit:4;stroke-dasharray:none;stroke-dashoffset:0;stroke-opacity:1"
       id="path4687"
       sodipodi:type="arc"
       sodipodi:cx="52.037247"
       sodipodi:cy="41.584862"
       sodipodi:rx="0.14708097"
       sodipodi:ry="1.5884745"
       sodipodi:start="0"
       sodipodi:end="0.1010029"
       d="m 52.184328,41.584862 a 0.14708097,1.5884745 0 0 1 -7.5e-4,0.160168 l -0.146331,-0.160168 z" />
    <path
       style="opacity:1;fill:#000000;fill-opacity:1;fill-rule:evenodd;stroke:#110000;stroke-width:4;stroke-linejoin:round;stroke-miterlimit:4;stroke-dasharray:none;stroke-dashoffset:0;stroke-opacity:1"
       id="path4689"
       sodipodi:type="arc"
       sodipodi:cx="51.831333"
       sodipodi:cy="26.759098"
       sodipodi:rx="0.64715624"
       sodipodi:ry="1.3531449"
       sodipodi:start="0"
       sodipodi:end="0.1010029"
       d="m 52.478489,26.759098 a 0.64715624,1.3531449 0 0 1 -0.0033,0.136439 l -0.643858,-0.136439 z" />
    <path
       style="opacity:1;fill:#000000;fill-opacity:1;fill-rule:evenodd;stroke:#110000;stroke-width:4;stroke-linejoin:round;stroke-miterlimit:4;stroke-dasharray:none;stroke-dashoffset:0;stroke-opacity:1"
       id="path4691"
       sodipodi:type="arc"
       sodipodi:cx="41.21209"
       sodipodi:cy="16.669344"
       sodipodi:rx="0.97073442"
       sodipodi:ry="1.1472316"
       sodipodi:start="0"
       sodipodi:end="0.1010029"
       d="m 42.182824,16.669344 a 0.97073442,1.1472316 0 0 1 -0.0049,0.115677 L 41.21209,16.669344 Z" />
    <path
       style="opacity:1;fill:#000000;fill-opacity:1;fill-rule:evenodd;stroke:#110000;stroke-width:4;stroke-linejoin:round;stroke-miterlimit:4;stroke-dasharray:none;stroke-dashoffset:0;stroke-opacity:1"
       id="path4693"
       sodipodi:type="arc"
       sodipodi:cx="26.856985"
       sodipodi:cy="16.404598"
       sodipodi:rx="0.91190201"
       sodipodi:ry="0.76482105"
       sodipodi:start="0"
       sodipodi:end="0.1010029"
       d="m 27.768887,16.404598 a 0.91190201,0.76482105 0 0 1 -0.0046,0.07712 l -0.907255,-0.07712 z" />
    <path
       style="opacity:1;fill:#000000;fill-opacity:1;fill-rule:evenodd;stroke:#110000;stroke-width:4;stroke-linejoin:round;stroke-miterlimit:4;stroke-dasharray:none;stroke-dashoffset:0;stroke-opacity:1"
       id="path4695"
       sodipodi:type="arc"
       sodipodi:cx="13.413784"
       sodipodi:cy="26.347271"
       sodipodi:rx="0.64715624"
       sodipodi:ry="2.0003011"
       sodipodi:start="0"
       sodipodi:end="0.1010029"
       d="m 14.06094,26.347271 a 0.64715624,2.0003011 0 0 1 -0.0033,0.201693 l -0.643858,-0.201693 z" />
    <path
       style="opacity:1;fill:#000000;fill-opacity:1;fill-rule:evenodd;stroke:#110000;stroke-width:4;stroke-linejoin:round;stroke-miterlimit:4;stroke-dasharray:none;stroke-dashoffset:0;stroke-opacity:1"
       id="path4697"
       sodipodi:type="arc"
       sodipodi:cx="14.119773"
       sodipodi:cy="42.849758"
       sodipodi:rx="0.58832389"
       sodipodi:ry="1.7943878"
       sodipodi:start="0"
       sodipodi:end="0.1010029"
       d="m 14.708097,42.849758 a 0.58832389,1.7943878 0 0 1 -0.003,0.180931 l -0.585325,-0.180931 z" />
    <path
       style="opacity:1;fill:#000000;fill-opacity:1;fill-rule:evenodd;stroke:#110000;stroke-width:4;stroke-linejoin:round;stroke-miterlimit:4;stroke-dasharray:none;stroke-dashoffset:0;stroke-opacity:1"
       id="path4699"
       sodipodi:type="arc"
       sodipodi:cx="26.739321"
       sodipodi:cy="52.821846"
       sodipodi:rx="0.97073442"
       sodipodi:ry="1.1178154"
       sodipodi:start="0"
       sodipodi:end="0.1010029"
       d="m 27.710055,52.821846 a 0.97073442,1.1178154 0 0 1 -0.0049,0.112711 l -0.965787,-0.112711 z" />
    <path
       style="opacity:1;fill:#000000;fill-opacity:1;fill-rule:evenodd;stroke:#110000;stroke-width:4;stroke-linejoin:round;stroke-miterlimit:4;stroke-dasharray:none;stroke-dashoffset:0;stroke-opacity:1"
       id="path4701"
       sodipodi:type="arc"
       sodipodi:cx="41.770996"
       sodipodi:cy="52.292355"
       sodipodi:rx="0.29416195"
       sodipodi:ry="1.2943125"
       sodipodi:start="0"
       sodipodi:end="0.1010029"
       d="m 42.065158,52.292355 a 0.29416195,1.2943125 0 0 1 -0.0015,0.130507 l -0.292663,-0.130507 z" />
  </g>
</svg>
